<svg width="50" height="50" viewBox="0 0 50 50" fill="none" xmlns="http://www.w3.org/2000/svg">
<g clip-path="url(#clip0)">
<path d="M31.2432 36.4585H18.7579C18.1829 36.4585 17.7162 37.1585 17.7162 38.021C17.7162 38.8835 18.1818 39.5835 18.7579 39.5835H31.2432C31.8182 39.5835 32.2849 38.8835 32.2849 38.021C32.2849 37.1585 31.8182 36.4585 31.2432 36.4585Z" fill="black"/>
<path d="M31.2432 41.6668H18.7579C18.1829 41.6668 17.7162 42.3668 17.7162 43.2293C17.7162 44.0918 18.1818 44.7918 18.7579 44.7918H31.2432C31.8182 44.7918 32.2849 44.0918 32.2849 43.2293C32.2849 42.3668 31.8182 41.6668 31.2432 41.6668Z" fill="black"/>
<path d="M28.1245 46.875H21.8746C21.2996 46.875 20.8329 47.575 20.8329 48.4375C20.8329 49.3 21.2985 50 21.8746 50H28.1245C28.6995 50 29.1662 49.3 29.1662 48.4375C29.1662 47.575 28.6964 46.875 28.1245 46.875Z" fill="black"/>
<path d="M39.3921 10.5342C39.0098 9.52066 38.116 7.14675 35.9546 4.85507C33.6745 2.43742 30.9609 0.896803 27.888 0.283234C25.9816 -0.0950828 24.0195 -0.0950828 22.113 0.283234C19.0443 0.89778 16.3298 2.43527 14.0464 4.854C11.8922 7.13523 10.9922 9.51646 10.6089 10.5331C10.1225 11.8238 9.21625 14.2248 9.47142 17.3831C9.75267 20.8581 11.2652 23.3966 11.7631 24.231C12.0756 24.7466 12.7006 25.732 13.9558 27.5008C14.2683 27.9476 14.5422 28.3133 14.7766 28.6309C15.3599 29.4226 15.6817 29.8591 16.013 30.5476C16.465 31.4869 16.7978 32.479 17.0036 33.5007C17.1025 33.9854 17.5287 34.3336 18.0234 34.334H31.9785C32.4801 34.3333 32.9101 33.9752 33.0014 33.482C33.1869 32.4681 33.5163 31.486 33.9795 30.5653C34.342 29.8486 34.6764 29.3903 35.2837 28.557C35.5036 28.2559 35.7536 27.9122 36.0514 27.4935C36.915 26.2768 37.6618 25.2258 38.2389 24.2258C38.7909 23.2883 40.2576 20.7883 40.5306 17.381C40.7786 14.2176 39.8765 11.8217 39.3921 10.5342Z" fill="black" fill-opacity="0.26"/>
</g>
<defs>
<clipPath id="clip0">
<rect width="50" height="50" fill="white"/>
</clipPath>
</defs>
</svg>
